<mxfile host="app.diagrams.net" modified="2020-08-27T03:23:27.364Z" agent="5.0 (Windows)" etag="xo2_YfVziXM3cLEj4w2Z" version="13.6.5" type="github">
  <diagram id="C5RBs43oDa-KdzZeNtuy" name="Page-1">
    <mxGraphModel dx="2889" dy="1123" grid="1" gridSize="10" guides="1" tooltips="1" connect="1" arrows="1" fold="1" page="1" pageScale="1" pageWidth="827" pageHeight="1169" math="0" shadow="0">
      <root>
        <mxCell id="WIyWlLk6GJQsqaUBKTNV-0" />
        <mxCell id="WIyWlLk6GJQsqaUBKTNV-1" parent="WIyWlLk6GJQsqaUBKTNV-0" />
        <mxCell id="qzIJUx3gllVkEySievb--22" value="" style="endArrow=diamondThin;endFill=1;endSize=24;html=1;exitX=0.5;exitY=0;exitDx=0;exitDy=0;entryX=0.5;entryY=1;entryDx=0;entryDy=0;" parent="WIyWlLk6GJQsqaUBKTNV-1" source="qzIJUx3gllVkEySievb--90" edge="1" target="qzIJUx3gllVkEySievb--92">
          <mxGeometry width="160" relative="1" as="geometry">
            <mxPoint x="414" y="250" as="sourcePoint" />
            <mxPoint x="420" y="194" as="targetPoint" />
          </mxGeometry>
        </mxCell>
        <mxCell id="qzIJUx3gllVkEySievb--23" value="" style="endArrow=diamondThin;endFill=1;endSize=24;html=1;entryX=0.425;entryY=1;entryDx=0;entryDy=0;entryPerimeter=0;" parent="WIyWlLk6GJQsqaUBKTNV-1" target="qzIJUx3gllVkEySievb--90" edge="1">
          <mxGeometry width="160" relative="1" as="geometry">
            <mxPoint x="300" y="540" as="sourcePoint" />
            <mxPoint x="250" y="310" as="targetPoint" />
            <Array as="points">
              <mxPoint x="300" y="450" />
              <mxPoint x="408" y="450" />
            </Array>
          </mxGeometry>
        </mxCell>
        <mxCell id="qzIJUx3gllVkEySievb--24" value="" style="endArrow=diamondThin;endFill=1;endSize=24;html=1;exitX=0.5;exitY=0;exitDx=0;exitDy=0;entryX=0.106;entryY=1;entryDx=0;entryDy=0;entryPerimeter=0;" parent="WIyWlLk6GJQsqaUBKTNV-1" source="qzIJUx3gllVkEySievb--74" target="qzIJUx3gllVkEySievb--90" edge="1">
          <mxGeometry width="160" relative="1" as="geometry">
            <mxPoint x="-93.92000000000007" y="541.1200000000001" as="sourcePoint" />
            <mxPoint x="355" y="290" as="targetPoint" />
            <Array as="points">
              <mxPoint x="-111" y="390" />
              <mxPoint x="355" y="390" />
            </Array>
          </mxGeometry>
        </mxCell>
        <mxCell id="qzIJUx3gllVkEySievb--25" value="" style="endArrow=diamondThin;endFill=1;endSize=24;html=1;entryX=0.25;entryY=1;entryDx=0;entryDy=0;" parent="WIyWlLk6GJQsqaUBKTNV-1" target="qzIJUx3gllVkEySievb--90" edge="1">
          <mxGeometry width="160" relative="1" as="geometry">
            <mxPoint x="100" y="541" as="sourcePoint" />
            <mxPoint x="250" y="310" as="targetPoint" />
            <Array as="points">
              <mxPoint x="100" y="410" />
              <mxPoint x="380" y="410" />
            </Array>
          </mxGeometry>
        </mxCell>
        <mxCell id="qzIJUx3gllVkEySievb--40" value="" style="endArrow=diamondThin;endFill=1;endSize=24;html=1;exitX=0.5;exitY=0;exitDx=0;exitDy=0;entryX=0.55;entryY=1.017;entryDx=0;entryDy=0;entryPerimeter=0;" parent="WIyWlLk6GJQsqaUBKTNV-1" source="qzIJUx3gllVkEySievb--84" target="qzIJUx3gllVkEySievb--90" edge="1">
          <mxGeometry width="160" relative="1" as="geometry">
            <mxPoint x="494.4000000000001" y="539.98" as="sourcePoint" />
            <mxPoint x="250" y="310" as="targetPoint" />
            <Array as="points">
              <mxPoint x="509" y="450" />
              <mxPoint x="430" y="450" />
            </Array>
          </mxGeometry>
        </mxCell>
        <mxCell id="qzIJUx3gllVkEySievb--49" value="" style="endArrow=diamondThin;endFill=1;endSize=24;html=1;entryX=0.5;entryY=1;entryDx=0;entryDy=0;" parent="WIyWlLk6GJQsqaUBKTNV-1" edge="1">
          <mxGeometry width="160" relative="1" as="geometry">
            <mxPoint x="509" y="679" as="sourcePoint" />
            <mxPoint x="509" y="600" as="targetPoint" />
          </mxGeometry>
        </mxCell>
        <mxCell id="qzIJUx3gllVkEySievb--56" value="" style="endArrow=diamondThin;endFill=1;endSize=24;html=1;exitX=0.457;exitY=-0.019;exitDx=0;exitDy=0;exitPerimeter=0;entryX=0.75;entryY=1;entryDx=0;entryDy=0;" parent="WIyWlLk6GJQsqaUBKTNV-1" target="qzIJUx3gllVkEySievb--90" edge="1">
          <mxGeometry width="160" relative="1" as="geometry">
            <mxPoint x="753.1199999999999" y="539.8600000000001" as="sourcePoint" />
            <mxPoint x="250" y="310" as="targetPoint" />
            <Array as="points">
              <mxPoint x="753" y="410" />
              <mxPoint x="460" y="410" />
            </Array>
          </mxGeometry>
        </mxCell>
        <mxCell id="qzIJUx3gllVkEySievb--63" value="" style="endArrow=diamondThin;endFill=1;endSize=24;html=1;exitX=0.5;exitY=0;exitDx=0;exitDy=0;entryX=0.75;entryY=1;entryDx=0;entryDy=0;" parent="WIyWlLk6GJQsqaUBKTNV-1" target="qzIJUx3gllVkEySievb--92" edge="1">
          <mxGeometry width="160" relative="1" as="geometry">
            <mxPoint x="630" y="250" as="sourcePoint" />
            <mxPoint x="454.00000000000045" y="194" as="targetPoint" />
            <Array as="points">
              <mxPoint x="630" y="220" />
              <mxPoint x="460" y="220" />
            </Array>
          </mxGeometry>
        </mxCell>
        <mxCell id="qzIJUx3gllVkEySievb--69" value="" style="endArrow=diamondThin;endFill=1;endSize=24;html=1;exitX=0.5;exitY=0;exitDx=0;exitDy=0;" parent="WIyWlLk6GJQsqaUBKTNV-1" edge="1">
          <mxGeometry width="160" relative="1" as="geometry">
            <mxPoint x="980" y="541" as="sourcePoint" />
            <mxPoint x="490" y="301" as="targetPoint" />
            <Array as="points">
              <mxPoint x="980" y="390" />
              <mxPoint x="490" y="390" />
            </Array>
          </mxGeometry>
        </mxCell>
        <mxCell id="qzIJUx3gllVkEySievb--73" value="" style="endArrow=diamondThin;endFill=1;endSize=24;html=1;entryX=0.5;entryY=1;entryDx=0;entryDy=0;exitX=0.5;exitY=0;exitDx=0;exitDy=0;" parent="WIyWlLk6GJQsqaUBKTNV-1" edge="1">
          <mxGeometry width="160" relative="1" as="geometry">
            <mxPoint x="749" y="679" as="sourcePoint" />
            <mxPoint x="749" y="600" as="targetPoint" />
          </mxGeometry>
        </mxCell>
        <mxCell id="qzIJUx3gllVkEySievb--74" value="&lt;p style=&quot;margin: 0px ; margin-top: 6px ; text-align: center&quot;&gt;&lt;b&gt;Login&lt;/b&gt;&lt;/p&gt;&lt;hr&gt;&lt;p style=&quot;margin: 0px ; margin-left: 8px&quot;&gt;- username: String&lt;/p&gt;&lt;p style=&quot;margin: 0px ; margin-left: 8px&quot;&gt;- password: String&lt;/p&gt;" style="align=left;overflow=fill;html=1;dropTarget=0;" parent="WIyWlLk6GJQsqaUBKTNV-1" vertex="1">
          <mxGeometry x="-191" y="540" width="160" height="69" as="geometry" />
        </mxCell>
        <mxCell id="qzIJUx3gllVkEySievb--75" value="" style="shape=component;jettyWidth=8;jettyHeight=4;" parent="qzIJUx3gllVkEySievb--74" vertex="1">
          <mxGeometry x="1" width="20" height="20" relative="1" as="geometry">
            <mxPoint x="-24" y="4" as="offset" />
          </mxGeometry>
        </mxCell>
        <mxCell id="qzIJUx3gllVkEySievb--76" value="&lt;p style=&quot;margin: 0px ; margin-top: 6px ; text-align: center&quot;&gt;&lt;b&gt;Register&lt;/b&gt;&lt;/p&gt;&lt;hr&gt;&lt;p style=&quot;margin: 0px ; margin-left: 8px&quot;&gt;- username: String&lt;/p&gt;&lt;p style=&quot;margin: 0px ; margin-left: 8px&quot;&gt;- password: String&lt;/p&gt;&lt;p style=&quot;margin: 0px ; margin-left: 8px&quot;&gt;- email: String&lt;/p&gt;&lt;p style=&quot;margin: 0px ; margin-left: 8px&quot;&gt;- phoneNumber: String&lt;/p&gt;" style="align=left;overflow=fill;html=1;dropTarget=0;" parent="WIyWlLk6GJQsqaUBKTNV-1" vertex="1">
          <mxGeometry x="19" y="540" width="160" height="99" as="geometry" />
        </mxCell>
        <mxCell id="qzIJUx3gllVkEySievb--77" value="" style="shape=component;jettyWidth=8;jettyHeight=4;" parent="qzIJUx3gllVkEySievb--76" vertex="1">
          <mxGeometry x="1" width="20" height="20" relative="1" as="geometry">
            <mxPoint x="-24" y="4" as="offset" />
          </mxGeometry>
        </mxCell>
        <mxCell id="qzIJUx3gllVkEySievb--78" value="&lt;p style=&quot;margin: 0px ; margin-top: 6px ; text-align: center&quot;&gt;&lt;b&gt;SensorCard&lt;/b&gt;&lt;/p&gt;&lt;hr&gt;&lt;p style=&quot;margin: 0px ; margin-left: 8px&quot;&gt;+ sensor: Sensor&lt;/p&gt;" style="align=left;overflow=fill;html=1;dropTarget=0;" parent="WIyWlLk6GJQsqaUBKTNV-1" vertex="1">
          <mxGeometry x="429" y="679" width="160" height="60" as="geometry" />
        </mxCell>
        <mxCell id="qzIJUx3gllVkEySievb--79" value="" style="shape=component;jettyWidth=8;jettyHeight=4;" parent="qzIJUx3gllVkEySievb--78" vertex="1">
          <mxGeometry x="1" width="20" height="20" relative="1" as="geometry">
            <mxPoint x="-24" y="4" as="offset" />
          </mxGeometry>
        </mxCell>
        <mxCell id="qzIJUx3gllVkEySievb--80" value="&lt;p style=&quot;margin: 0px ; margin-top: 6px ; text-align: center&quot;&gt;&lt;b&gt;SignalGraph&lt;/b&gt;&lt;/p&gt;&lt;hr&gt;&lt;p style=&quot;margin: 0px ; margin-left: 8px&quot;&gt;+ signal: Signal&lt;br&gt;&lt;/p&gt;" style="align=left;overflow=fill;html=1;dropTarget=0;" parent="WIyWlLk6GJQsqaUBKTNV-1" vertex="1">
          <mxGeometry x="669" y="679" width="160" height="60" as="geometry" />
        </mxCell>
        <mxCell id="qzIJUx3gllVkEySievb--81" value="" style="shape=component;jettyWidth=8;jettyHeight=4;" parent="qzIJUx3gllVkEySievb--80" vertex="1">
          <mxGeometry x="1" width="20" height="20" relative="1" as="geometry">
            <mxPoint x="-24" y="4" as="offset" />
          </mxGeometry>
        </mxCell>
        <mxCell id="qzIJUx3gllVkEySievb--82" value="&lt;p style=&quot;margin: 0px ; margin-top: 6px ; text-align: center&quot;&gt;&lt;b&gt;ProfilePage&lt;/b&gt;&lt;/p&gt;&lt;hr&gt;&lt;p style=&quot;margin: 0px ; margin-left: 8px&quot;&gt;+ user: User&lt;/p&gt;" style="align=left;overflow=fill;html=1;dropTarget=0;" parent="WIyWlLk6GJQsqaUBKTNV-1" vertex="1">
          <mxGeometry x="899" y="540" width="160" height="60" as="geometry" />
        </mxCell>
        <mxCell id="qzIJUx3gllVkEySievb--83" value="" style="shape=component;jettyWidth=8;jettyHeight=4;" parent="qzIJUx3gllVkEySievb--82" vertex="1">
          <mxGeometry x="1" width="20" height="20" relative="1" as="geometry">
            <mxPoint x="-24" y="4" as="offset" />
          </mxGeometry>
        </mxCell>
        <mxCell id="qzIJUx3gllVkEySievb--84" value="&lt;p style=&quot;margin: 0px ; margin-top: 6px ; text-align: center&quot;&gt;&lt;b&gt;MachineDetails&lt;/b&gt;&lt;/p&gt;&lt;hr&gt;&lt;p style=&quot;margin: 0px ; margin-left: 8px&quot;&gt;+ machine: Machine&lt;/p&gt;" style="align=left;overflow=fill;html=1;dropTarget=0;" parent="WIyWlLk6GJQsqaUBKTNV-1" vertex="1">
          <mxGeometry x="429" y="540" width="160" height="60" as="geometry" />
        </mxCell>
        <mxCell id="qzIJUx3gllVkEySievb--85" value="" style="shape=component;jettyWidth=8;jettyHeight=4;" parent="qzIJUx3gllVkEySievb--84" vertex="1">
          <mxGeometry x="1" width="20" height="20" relative="1" as="geometry">
            <mxPoint x="-24" y="4" as="offset" />
          </mxGeometry>
        </mxCell>
        <mxCell id="qzIJUx3gllVkEySievb--86" value="&lt;p style=&quot;margin: 0px ; margin-top: 6px ; text-align: center&quot;&gt;&lt;b&gt;SensorDetails&lt;/b&gt;&lt;/p&gt;&lt;hr&gt;&lt;p style=&quot;margin: 0px ; margin-left: 8px&quot;&gt;&lt;br&gt;&lt;/p&gt;" style="align=left;overflow=fill;html=1;dropTarget=0;" parent="WIyWlLk6GJQsqaUBKTNV-1" vertex="1">
          <mxGeometry x="669" y="540" width="160" height="60" as="geometry" />
        </mxCell>
        <mxCell id="qzIJUx3gllVkEySievb--87" value="" style="shape=component;jettyWidth=8;jettyHeight=4;" parent="qzIJUx3gllVkEySievb--86" vertex="1">
          <mxGeometry x="1" width="20" height="20" relative="1" as="geometry">
            <mxPoint x="-24" y="4" as="offset" />
          </mxGeometry>
        </mxCell>
        <mxCell id="qzIJUx3gllVkEySievb--88" value="&lt;p style=&quot;margin: 0px ; margin-top: 6px ; text-align: center&quot;&gt;&lt;b&gt;NavBar&lt;/b&gt;&lt;/p&gt;&lt;hr&gt;&lt;p style=&quot;margin: 0px ; margin-left: 8px&quot;&gt;&lt;br&gt;&lt;/p&gt;" style="align=left;overflow=fill;html=1;dropTarget=0;" parent="WIyWlLk6GJQsqaUBKTNV-1" vertex="1">
          <mxGeometry x="550" y="240" width="160" height="60" as="geometry" />
        </mxCell>
        <mxCell id="qzIJUx3gllVkEySievb--89" value="" style="shape=component;jettyWidth=8;jettyHeight=4;" parent="qzIJUx3gllVkEySievb--88" vertex="1">
          <mxGeometry x="1" width="20" height="20" relative="1" as="geometry">
            <mxPoint x="-24" y="4" as="offset" />
          </mxGeometry>
        </mxCell>
        <mxCell id="qzIJUx3gllVkEySievb--90" value="&lt;p style=&quot;margin: 0px ; margin-top: 6px ; text-align: center&quot;&gt;&lt;b&gt;Router&lt;/b&gt;&lt;/p&gt;&lt;hr&gt;&lt;p style=&quot;margin: 0px ; margin-left: 8px&quot;&gt;&lt;br&gt;&lt;/p&gt;" style="align=left;overflow=fill;html=1;dropTarget=0;" parent="WIyWlLk6GJQsqaUBKTNV-1" vertex="1">
          <mxGeometry x="340" y="240" width="160" height="60" as="geometry" />
        </mxCell>
        <mxCell id="qzIJUx3gllVkEySievb--91" value="" style="shape=component;jettyWidth=8;jettyHeight=4;" parent="qzIJUx3gllVkEySievb--90" vertex="1">
          <mxGeometry x="1" width="20" height="20" relative="1" as="geometry">
            <mxPoint x="-24" y="4" as="offset" />
          </mxGeometry>
        </mxCell>
        <mxCell id="qzIJUx3gllVkEySievb--92" value="&lt;p style=&quot;margin: 0px ; margin-top: 6px ; text-align: center&quot;&gt;&lt;b&gt;App&lt;/b&gt;&lt;/p&gt;&lt;hr&gt;&lt;p style=&quot;margin: 0px ; margin-left: 8px&quot;&gt;&lt;br&gt;&lt;/p&gt;" style="align=left;overflow=fill;html=1;dropTarget=0;" parent="WIyWlLk6GJQsqaUBKTNV-1" vertex="1">
          <mxGeometry x="340" y="130" width="160" height="60" as="geometry" />
        </mxCell>
        <mxCell id="qzIJUx3gllVkEySievb--93" value="" style="shape=component;jettyWidth=8;jettyHeight=4;" parent="qzIJUx3gllVkEySievb--92" vertex="1">
          <mxGeometry x="1" width="20" height="20" relative="1" as="geometry">
            <mxPoint x="-24" y="4" as="offset" />
          </mxGeometry>
        </mxCell>
        <mxCell id="qzIJUx3gllVkEySievb--101" value="&lt;p style=&quot;margin: 0px ; margin-top: 6px ; text-align: center&quot;&gt;&lt;b&gt;MachinesOverview&lt;/b&gt;&lt;/p&gt;&lt;hr&gt;&lt;p style=&quot;margin: 0px ; margin-left: 8px&quot;&gt;- machines: Machine[ ]&lt;/p&gt;" style="align=left;overflow=fill;html=1;dropTarget=0;" parent="WIyWlLk6GJQsqaUBKTNV-1" vertex="1">
          <mxGeometry x="219" y="541" width="160" height="59" as="geometry" />
        </mxCell>
        <mxCell id="qzIJUx3gllVkEySievb--102" value="" style="shape=component;jettyWidth=8;jettyHeight=4;" parent="qzIJUx3gllVkEySievb--101" vertex="1">
          <mxGeometry x="1" width="20" height="20" relative="1" as="geometry">
            <mxPoint x="-24" y="4" as="offset" />
          </mxGeometry>
        </mxCell>
        <mxCell id="qzIJUx3gllVkEySievb--105" value="&lt;p style=&quot;margin: 0px ; margin-top: 6px ; text-align: center&quot;&gt;&lt;b&gt;ComponentName&lt;/b&gt;&lt;/p&gt;&lt;hr&gt;&lt;p style=&quot;margin: 0px ; margin-left: 8px&quot;&gt;- stateField: Type&lt;/p&gt;&lt;p style=&quot;margin: 0px ; margin-left: 8px&quot;&gt;&lt;br&gt;+ prop: Type&lt;/p&gt;" style="align=left;overflow=fill;html=1;dropTarget=0;" parent="WIyWlLk6GJQsqaUBKTNV-1" vertex="1">
          <mxGeometry x="-180" y="130" width="160" height="90" as="geometry" />
        </mxCell>
        <mxCell id="qzIJUx3gllVkEySievb--106" value="" style="shape=component;jettyWidth=8;jettyHeight=4;" parent="qzIJUx3gllVkEySievb--105" vertex="1">
          <mxGeometry x="1" width="20" height="20" relative="1" as="geometry">
            <mxPoint x="-24" y="4" as="offset" />
          </mxGeometry>
        </mxCell>
        <mxCell id="qzIJUx3gllVkEySievb--128" value="&lt;font style=&quot;font-size: 12px&quot;&gt;1&lt;/font&gt;" style="endArrow=open;html=1;endSize=12;startArrow=diamondThin;startSize=22;startFill=0;edgeStyle=orthogonalEdgeStyle;align=left;verticalAlign=bottom;sourcePerimeterSpacing=0;entryX=0;entryY=0.5;entryDx=0;entryDy=0;exitX=1;exitY=0.5;exitDx=0;exitDy=0;" parent="WIyWlLk6GJQsqaUBKTNV-1" source="qzIJUx3gllVkEySievb--108" target="qzIJUx3gllVkEySievb--120" edge="1">
          <mxGeometry x="-0.843" y="10" relative="1" as="geometry">
            <mxPoint x="-46" y="920" as="sourcePoint" />
            <mxPoint x="64" y="920" as="targetPoint" />
            <mxPoint as="offset" />
          </mxGeometry>
        </mxCell>
        <mxCell id="qzIJUx3gllVkEySievb--131" value="1..*" style="text;html=1;strokeColor=none;fillColor=none;align=center;verticalAlign=middle;whiteSpace=wrap;rounded=0;" parent="WIyWlLk6GJQsqaUBKTNV-1" vertex="1">
          <mxGeometry x="64" y="856" width="40" height="20" as="geometry" />
        </mxCell>
        <mxCell id="qzIJUx3gllVkEySievb--137" value="1" style="endArrow=open;html=1;endSize=12;startArrow=diamondThin;startSize=22;startFill=0;edgeStyle=orthogonalEdgeStyle;align=left;verticalAlign=bottom;fontSize=12;exitX=1;exitY=0.5;exitDx=0;exitDy=0;entryX=0;entryY=0.5;entryDx=0;entryDy=0;" parent="WIyWlLk6GJQsqaUBKTNV-1" source="qzIJUx3gllVkEySievb--120" target="qzIJUx3gllVkEySievb--112" edge="1">
          <mxGeometry x="-0.8077" y="9" relative="1" as="geometry">
            <mxPoint x="264" y="830" as="sourcePoint" />
            <mxPoint x="374" y="929" as="targetPoint" />
            <mxPoint as="offset" />
          </mxGeometry>
        </mxCell>
        <mxCell id="qzIJUx3gllVkEySievb--139" value="1" style="endArrow=open;html=1;endSize=12;startArrow=diamondThin;startSize=22;startFill=0;edgeStyle=orthogonalEdgeStyle;align=left;verticalAlign=bottom;fontSize=12;exitX=1;exitY=0.5;exitDx=0;exitDy=0;entryX=0;entryY=0.5;entryDx=0;entryDy=0;" parent="WIyWlLk6GJQsqaUBKTNV-1" source="qzIJUx3gllVkEySievb--112" target="qzIJUx3gllVkEySievb--116" edge="1">
          <mxGeometry x="-0.7241" y="9" relative="1" as="geometry">
            <mxPoint x="574" y="1020" as="sourcePoint" />
            <mxPoint x="724" y="1020" as="targetPoint" />
            <mxPoint as="offset" />
          </mxGeometry>
        </mxCell>
        <mxCell id="qzIJUx3gllVkEySievb--141" value="1..*" style="text;html=1;strokeColor=none;fillColor=none;align=center;verticalAlign=middle;whiteSpace=wrap;rounded=0;" parent="WIyWlLk6GJQsqaUBKTNV-1" vertex="1">
          <mxGeometry x="314" y="900" width="40" height="20" as="geometry" />
        </mxCell>
        <mxCell id="qzIJUx3gllVkEySievb--142" value="1..*" style="text;html=1;strokeColor=none;fillColor=none;align=center;verticalAlign=middle;whiteSpace=wrap;rounded=0;" parent="WIyWlLk6GJQsqaUBKTNV-1" vertex="1">
          <mxGeometry x="564" y="944" width="40" height="20" as="geometry" />
        </mxCell>
        <mxCell id="qzIJUx3gllVkEySievb--152" value="&lt;p style=&quot;margin: 0px ; margin-top: 4px ; text-align: center&quot;&gt;&lt;i&gt;&amp;lt;&amp;lt;enumeration&amp;gt;&amp;gt;&lt;/i&gt;&lt;br&gt;&lt;b&gt;Status&lt;/b&gt;&lt;/p&gt;&lt;hr size=&quot;1&quot;&gt;&lt;p style=&quot;margin: 0px ; margin-left: 4px&quot;&gt;Nominal&lt;/p&gt;&lt;p style=&quot;margin: 0px ; margin-left: 4px&quot;&gt;Moderate&lt;/p&gt;&lt;p style=&quot;margin: 0px ; margin-left: 4px&quot;&gt;Critical&lt;/p&gt;&lt;p style=&quot;margin: 0px ; margin-left: 4px&quot;&gt;&lt;br&gt;&lt;/p&gt;" style="verticalAlign=top;align=left;overflow=fill;fontSize=12;fontFamily=Helvetica;html=1;" parent="WIyWlLk6GJQsqaUBKTNV-1" vertex="1">
          <mxGeometry x="-150" y="1006" width="190" height="90" as="geometry" />
        </mxCell>
        <mxCell id="qzIJUx3gllVkEySievb--153" value="&lt;p style=&quot;margin: 0px ; margin-top: 4px ; text-align: center&quot;&gt;&lt;i&gt;&amp;lt;&amp;lt;enumeration&amp;gt;&amp;gt;&lt;/i&gt;&lt;br&gt;&lt;b&gt;Unit&lt;/b&gt;&lt;/p&gt;&lt;hr size=&quot;1&quot;&gt;&lt;p style=&quot;margin: 0px ; margin-left: 4px&quot;&gt;MPS2_RMS&lt;/p&gt;" style="verticalAlign=top;align=left;overflow=fill;fontSize=12;fontFamily=Helvetica;html=1;" parent="WIyWlLk6GJQsqaUBKTNV-1" vertex="1">
          <mxGeometry x="339" y="1030" width="190" height="90" as="geometry" />
        </mxCell>
        <mxCell id="qzIJUx3gllVkEySievb--154" value="Classname" style="swimlane;fontStyle=1;align=center;verticalAlign=top;childLayout=stackLayout;horizontal=1;startSize=26;horizontalStack=0;resizeParent=1;resizeParentMax=0;resizeLast=0;collapsible=1;marginBottom=0;fontSize=12;" parent="WIyWlLk6GJQsqaUBKTNV-1" vertex="1">
          <mxGeometry x="-180" y="250" width="160" height="60" as="geometry" />
        </mxCell>
        <mxCell id="qzIJUx3gllVkEySievb--155" value="+ field: type" style="text;strokeColor=none;fillColor=none;align=left;verticalAlign=top;spacingLeft=4;spacingRight=4;overflow=hidden;rotatable=0;points=[[0,0.5],[1,0.5]];portConstraint=eastwest;" parent="qzIJUx3gllVkEySievb--154" vertex="1">
          <mxGeometry y="26" width="160" height="26" as="geometry" />
        </mxCell>
        <mxCell id="qzIJUx3gllVkEySievb--156" value="" style="line;strokeWidth=1;fillColor=none;align=left;verticalAlign=middle;spacingTop=-1;spacingLeft=3;spacingRight=3;rotatable=0;labelPosition=right;points=[];portConstraint=eastwest;" parent="qzIJUx3gllVkEySievb--154" vertex="1">
          <mxGeometry y="52" width="160" height="8" as="geometry" />
        </mxCell>
        <mxCell id="qzIJUx3gllVkEySievb--107" value="Machine" style="swimlane;fontStyle=1;align=center;verticalAlign=top;childLayout=stackLayout;horizontal=1;startSize=26;horizontalStack=0;resizeParent=1;resizeParentMax=0;resizeLast=0;collapsible=1;marginBottom=0;" parent="WIyWlLk6GJQsqaUBKTNV-1" vertex="1">
          <mxGeometry x="-146" y="790" width="160" height="98" as="geometry" />
        </mxCell>
        <mxCell id="qzIJUx3gllVkEySievb--108" value="+ id: String&#xa;+ healthStatus: Status&#xa;+ name: String" style="text;strokeColor=none;fillColor=none;align=left;verticalAlign=top;spacingLeft=4;spacingRight=4;overflow=hidden;rotatable=0;points=[[0,0.5],[1,0.5]];portConstraint=eastwest;" parent="qzIJUx3gllVkEySievb--107" vertex="1">
          <mxGeometry y="26" width="160" height="64" as="geometry" />
        </mxCell>
        <mxCell id="ht1DmvBu-puAzxqytiye-2" value="" style="endArrow=classic;html=1;entryX=0.5;entryY=0;entryDx=0;entryDy=0;" edge="1" parent="qzIJUx3gllVkEySievb--107" target="qzIJUx3gllVkEySievb--152">
          <mxGeometry width="50" height="50" relative="1" as="geometry">
            <mxPoint x="91" y="100" as="sourcePoint" />
            <mxPoint x="116" y="90" as="targetPoint" />
          </mxGeometry>
        </mxCell>
        <mxCell id="qzIJUx3gllVkEySievb--109" value="" style="line;strokeWidth=1;fillColor=none;align=left;verticalAlign=middle;spacingTop=-1;spacingLeft=3;spacingRight=3;rotatable=0;labelPosition=right;points=[];portConstraint=eastwest;" parent="qzIJUx3gllVkEySievb--107" vertex="1">
          <mxGeometry y="90" width="160" height="8" as="geometry" />
        </mxCell>
        <mxCell id="ht1DmvBu-puAzxqytiye-3" style="edgeStyle=orthogonalEdgeStyle;rounded=0;orthogonalLoop=1;jettySize=auto;html=1;entryX=0.75;entryY=0;entryDx=0;entryDy=0;" edge="1" parent="WIyWlLk6GJQsqaUBKTNV-1" source="qzIJUx3gllVkEySievb--119" target="qzIJUx3gllVkEySievb--152">
          <mxGeometry relative="1" as="geometry">
            <Array as="points">
              <mxPoint x="184" y="960" />
              <mxPoint x="-7" y="960" />
            </Array>
          </mxGeometry>
        </mxCell>
        <mxCell id="qzIJUx3gllVkEySievb--119" value="Sensor" style="swimlane;fontStyle=1;align=center;verticalAlign=top;childLayout=stackLayout;horizontal=1;startSize=26;horizontalStack=0;resizeParent=1;resizeParentMax=0;resizeLast=0;collapsible=1;marginBottom=0;" parent="WIyWlLk6GJQsqaUBKTNV-1" vertex="1">
          <mxGeometry x="104" y="830" width="160" height="88" as="geometry" />
        </mxCell>
        <mxCell id="qzIJUx3gllVkEySievb--120" value="+ relative_id: String&#xa;+ name: String&#xa;+ heatlhStatus: Status" style="text;strokeColor=none;fillColor=none;align=left;verticalAlign=top;spacingLeft=4;spacingRight=4;overflow=hidden;rotatable=0;points=[[0,0.5],[1,0.5]];portConstraint=eastwest;" parent="qzIJUx3gllVkEySievb--119" vertex="1">
          <mxGeometry y="26" width="160" height="54" as="geometry" />
        </mxCell>
        <mxCell id="qzIJUx3gllVkEySievb--121" value="" style="line;strokeWidth=1;fillColor=none;align=left;verticalAlign=middle;spacingTop=-1;spacingLeft=3;spacingRight=3;rotatable=0;labelPosition=right;points=[];portConstraint=eastwest;" parent="qzIJUx3gllVkEySievb--119" vertex="1">
          <mxGeometry y="80" width="160" height="8" as="geometry" />
        </mxCell>
        <mxCell id="ht1DmvBu-puAzxqytiye-4" style="edgeStyle=orthogonalEdgeStyle;rounded=0;orthogonalLoop=1;jettySize=auto;html=1;entryX=0.5;entryY=0;entryDx=0;entryDy=0;" edge="1" parent="WIyWlLk6GJQsqaUBKTNV-1" source="qzIJUx3gllVkEySievb--111" target="qzIJUx3gllVkEySievb--153">
          <mxGeometry relative="1" as="geometry" />
        </mxCell>
        <mxCell id="qzIJUx3gllVkEySievb--111" value="Signal" style="swimlane;fontStyle=1;align=center;verticalAlign=top;childLayout=stackLayout;horizontal=1;startSize=26;horizontalStack=0;resizeParent=1;resizeParentMax=0;resizeLast=0;collapsible=1;marginBottom=0;" parent="WIyWlLk6GJQsqaUBKTNV-1" vertex="1">
          <mxGeometry x="354" y="876" width="160" height="88" as="geometry" />
        </mxCell>
        <mxCell id="qzIJUx3gllVkEySievb--112" value="+ relative_id: String&#xa;+ unit: Unit&#xa;+ threshold: Number" style="text;strokeColor=none;fillColor=none;align=left;verticalAlign=top;spacingLeft=4;spacingRight=4;overflow=hidden;rotatable=0;points=[[0,0.5],[1,0.5]];portConstraint=eastwest;" parent="qzIJUx3gllVkEySievb--111" vertex="1">
          <mxGeometry y="26" width="160" height="54" as="geometry" />
        </mxCell>
        <mxCell id="qzIJUx3gllVkEySievb--113" value="" style="line;strokeWidth=1;fillColor=none;align=left;verticalAlign=middle;spacingTop=-1;spacingLeft=3;spacingRight=3;rotatable=0;labelPosition=right;points=[];portConstraint=eastwest;" parent="qzIJUx3gllVkEySievb--111" vertex="1">
          <mxGeometry y="80" width="160" height="8" as="geometry" />
        </mxCell>
        <mxCell id="qzIJUx3gllVkEySievb--115" value="SampleChunk" style="swimlane;fontStyle=1;align=center;verticalAlign=top;childLayout=stackLayout;horizontal=1;startSize=26;horizontalStack=0;resizeParent=1;resizeParentMax=0;resizeLast=0;collapsible=1;marginBottom=0;" parent="WIyWlLk6GJQsqaUBKTNV-1" vertex="1">
          <mxGeometry x="604" y="918" width="160" height="88" as="geometry" />
        </mxCell>
        <mxCell id="qzIJUx3gllVkEySievb--116" value="+ timestamp: Date&#xa;+ timeStepSecs: Float&#xa;+ samples: Number[ ]" style="text;strokeColor=none;fillColor=none;align=left;verticalAlign=top;spacingLeft=4;spacingRight=4;overflow=hidden;rotatable=0;points=[[0,0.5],[1,0.5]];portConstraint=eastwest;" parent="qzIJUx3gllVkEySievb--115" vertex="1">
          <mxGeometry y="26" width="160" height="54" as="geometry" />
        </mxCell>
        <mxCell id="qzIJUx3gllVkEySievb--117" value="" style="line;strokeWidth=1;fillColor=none;align=left;verticalAlign=middle;spacingTop=-1;spacingLeft=3;spacingRight=3;rotatable=0;labelPosition=right;points=[];portConstraint=eastwest;" parent="qzIJUx3gllVkEySievb--115" vertex="1">
          <mxGeometry y="80" width="160" height="8" as="geometry" />
        </mxCell>
        <mxCell id="qzIJUx3gllVkEySievb--158" value="" style="endArrow=open;endSize=12;dashed=1;html=1;fontSize=12;entryX=0.5;entryY=0;entryDx=0;entryDy=0;exitX=0;exitY=0.5;exitDx=0;exitDy=0;" parent="WIyWlLk6GJQsqaUBKTNV-1" source="qzIJUx3gllVkEySievb--84" target="qzIJUx3gllVkEySievb--107" edge="1">
          <mxGeometry width="160" relative="1" as="geometry">
            <mxPoint x="460" y="640" as="sourcePoint" />
            <mxPoint y="750" as="targetPoint" />
            <Array as="points">
              <mxPoint x="410" y="570" />
              <mxPoint x="410" y="710" />
              <mxPoint x="-66" y="710" />
            </Array>
          </mxGeometry>
        </mxCell>
        <mxCell id="qzIJUx3gllVkEySievb--123" value="User" style="swimlane;fontStyle=1;align=center;verticalAlign=top;childLayout=stackLayout;horizontal=1;startSize=26;horizontalStack=0;resizeParent=1;resizeParentMax=0;resizeLast=0;collapsible=1;marginBottom=0;" parent="WIyWlLk6GJQsqaUBKTNV-1" vertex="1">
          <mxGeometry x="899" y="812" width="160" height="108" as="geometry" />
        </mxCell>
        <mxCell id="qzIJUx3gllVkEySievb--124" value="+ id: String&#xa;+ username:  String&#xa;+ email: String&#xa;+ phoneNumber: String" style="text;strokeColor=none;fillColor=none;align=left;verticalAlign=top;spacingLeft=4;spacingRight=4;overflow=hidden;rotatable=0;points=[[0,0.5],[1,0.5]];portConstraint=eastwest;" parent="qzIJUx3gllVkEySievb--123" vertex="1">
          <mxGeometry y="26" width="160" height="74" as="geometry" />
        </mxCell>
        <mxCell id="qzIJUx3gllVkEySievb--125" value="" style="line;strokeWidth=1;fillColor=none;align=left;verticalAlign=middle;spacingTop=-1;spacingLeft=3;spacingRight=3;rotatable=0;labelPosition=right;points=[];portConstraint=eastwest;" parent="qzIJUx3gllVkEySievb--123" vertex="1">
          <mxGeometry y="100" width="160" height="8" as="geometry" />
        </mxCell>
        <mxCell id="ht1DmvBu-puAzxqytiye-7" value="" style="endArrow=open;endSize=12;dashed=1;html=1;fontSize=12;" edge="1" parent="WIyWlLk6GJQsqaUBKTNV-1" target="qzIJUx3gllVkEySievb--123">
          <mxGeometry width="160" relative="1" as="geometry">
            <mxPoint x="977" y="601" as="sourcePoint" />
            <mxPoint x="500" y="859" as="targetPoint" />
            <Array as="points">
              <mxPoint x="976" y="639" />
              <mxPoint x="976" y="779" />
            </Array>
          </mxGeometry>
        </mxCell>
      </root>
    </mxGraphModel>
  </diagram>
</mxfile>
